<?xml version="1.0" standalone="no"?>
<!DOCTYPE svg PUBLIC "-//W3C//DTD SVG 1.1//EN" "http://www.w3.org/Graphics/SVG/1.1/DTD/svg11.dtd">
<svg xmlns="http://www.w3.org/2000/svg">
<metadata>Copyright (C) 2020 by original authors @ fontello.com</metadata>
<defs>
<font id="fontello" horiz-adv-x="1000" >
<font-face font-family="fontello" font-weight="400" font-stretch="normal" units-per-em="1000" ascent="850" descent="-150" />
<missing-glyph horiz-adv-x="1000" />
<glyph glyph-name="right" unicode="&#xe800;" d="M0 347q0 26 18 43t43 17h642l-242 244q-19 18-19 44t19 42q17 19 42 19t44-19l390-390-390-391q-20-18-44-18t-42 18-19 44 19 43l242 242h-642q-25 0-43 18t-18 44z" horiz-adv-x="938" />

<glyph glyph-name="icon-arrow-left" unicode="&#xe801;" d="M35 308a67 67 0 0 0 0 84l314 381a67 67 0 0 0 118-42v-762a67 67 0 0 0-118-42z" horiz-adv-x="467" />

<glyph glyph-name="icon-arrow-right" unicode="&#xe802;" d="M432 392a67 67 0 0 0 0-84l-314-381a67 67 0 0 0-118 42v762a67 67 0 0 0 118 42z" horiz-adv-x="467" />

<glyph glyph-name="icon-bag" unicode="&#xe803;" d="M262 367a46 46 0 1 0 0 93 46 46 0 0 0 0-93z m371 0a46 46 0 1 0 0 93 46 46 0 0 0 0-93z m-309 232a124 124 0 0 0 124 124 124 124 0 0 0 124-124v-62h-248z m371-62v62c0 136-111 247-247 247s-247-111-247-247v-62h-186v-526a155 155 0 0 1 155-154h556a155 155 0 0 1 155 154v526z" horiz-adv-x="896" />

<glyph glyph-name="icon-bill" unicode="&#xe804;" d="M1295 603a140 140 0 0 0-122 135c43-5 83-14 122-28z m0-516c-38 9-78 15-119 18a140 140 0 0 0 119 108z m-595 61c-97 0-175 94-175 210 0 116 78 210 175 210 97 0 175-94 175-210 0-116-78-210-175-210z m-595-39c75 0 136-59 139-134a528 528 0 0 0-139 30z m0 519c44-11 90-16 137-19-13-65-69-113-137-113z m1254 170c-85 36-170 50-255 50-269 0-539-137-808-137-68 0-135 9-203 30a75 75 0 0 1-22 4c-38 0-71-29-71-70v-694c0-28 16-54 41-64 85-36 170-50 255-50 269 0 539 137 808 137 68 0 135-9 203-30 7-3 15-4 23-4 37 0 70 29 70 70v694c0 28-16 54-41 64z" horiz-adv-x="1400" />

<glyph glyph-name="icon-book" unicode="&#xe805;" d="M928 469c31 2 57-21 57-51v-422c0-27-22-50-50-51-83-4-250-20-366-78-18-9-39 3-39 22v466c0 8 5 17 12 22 113 68 295 87 386 92z m-470-92c7-5 12-13 12-22v-466c0-19-21-31-39-22-116 58-283 74-365 78-29 2-51 24-51 51v422c0 30 26 53 57 51 91-5 273-24 386-92z m42 93a182 182 0 1 0 0 363 182 182 0 0 0 0-363z" horiz-adv-x="1000" />

<glyph glyph-name="icon-box" unicode="&#xe806;" d="M1000 412v-468a94 94 0 0 0-94-94h-811a94 94 0 0 0-94 94v468z m-531 62h-466c1 5 1 10 3 15l99 296a93 93 0 0 0 88 64h276z m529 0h-466v375h276c40 0 76-26 88-64l99-296c2-5 2-10 3-15z" horiz-adv-x="1000" />

<glyph glyph-name="icon-bucket" unicode="&#xe807;" d="M362 791c67 0 126-78 143-180h-286c16 102 75 180 143 180z m346-633c0 6 0 11-1 17l-30 387c-3 26-27 48-52 49v0h-57c-19 138-103 239-206 239-104 0-188-101-206-239h-56c-26 0-50-22-54-49l-30-387a104 104 0 0 1-1-17l-15-182c0-46 37-83 83-83h557c46 0 83 37 83 83z" horiz-adv-x="750" />

<glyph glyph-name="icon-cancel" unicode="&#xe808;" d="M752 209a24 24 0 0 0 0-33l-78-78a24 24 0 0 0-33 0l-127 129-128-129a24 24 0 0 0-33 0l-78 78a24 24 0 0 0 0 33l129 128-129 127a24 24 0 0 0 0 33l78 78a24 24 0 0 0 33 0l128-129 127 129a24 24 0 0 0 33 0l78-78a24 24 0 0 0 0-33l-129-128z m-238 614a486 486 0 0 1-487-486 486 486 0 0 1 487-487 486 486 0 0 1 486 487 486 486 0 0 1-486 486z" horiz-adv-x="1000" />

<glyph glyph-name="icon-check" unicode="&#xe809;" d="M437-117l-403 422a67 67 0 0 0 0 92l88 92a60 60 0 0 0 87 0l272-285 581 609a60 60 0 0 0 88 0l88-92a67 67 0 0 0 0-91l-713-747a60 60 0 0 0-88 0z" horiz-adv-x="1250" />

<glyph glyph-name="icon-download" unicode="&#xe80a;" d="M884-57c0 21-17 38-38 38-22 0-39-17-39-38s17-39 39-39c21 0 38 17 38 39z m-123 0c0 21-18 38-39 38-21 0-38-17-38-38s17-39 38-39 39 17 39 39z m239 169v-216c0-25-21-46-46-46h-896a46 46 0 0 0-46 46v216c0 26 21 47 46 47h283l95-95a99 99 0 0 1 140 0l95 95h283c25 0 46-21 46-47z m-417 726c26 0 47-21 47-46v-324h169c34 0 51-42 27-66l-293-294a37 37 0 0 0-53 0l-294 294c-24 24-7 66 27 66h170v324c0 25 20 46 46 46z" horiz-adv-x="1000" />

<glyph glyph-name="icon-eye" unicode="&#xe80b;" d="M734 584a241 241 0 0 1-64-9 121 121 0 0 0-169-169 242 242 0 1 1 233 178z m0-607a365 365 0 1 0 364 364 364 364 0 0 0-364-364z m720 401c-137 268-409 449-720 449-311 0-583-181-720-449a82 82 0 0 1 0-73c137-268 409-450 720-450 311 0 583 182 720 450a82 82 0 0 1 0 73z" horiz-adv-x="1500" />

<glyph glyph-name="icon-info-2" unicode="&#xe80c;" d="M569 152a22 22 0 0 0-22-22h-162a22 22 0 0 0-22 22v45a22 22 0 0 0 22 22h22v118h-22a22 22 0 0 0-22 22v44a22 22 0 0 0 22 22h118a22 22 0 0 0 22-22v-184h22a22 22 0 0 0 22-22z m-103 469a77 77 0 1 0 0-155 77 77 0 0 0 0 155z m0 202a457 457 0 1 1 0-914 457 457 0 0 1 0 914z" horiz-adv-x="929" />

<glyph glyph-name="icon-info" unicode="&#xe80d;" d="M423 616h124a24 24 0 0 0 23-25l-15-266a24 24 0 0 0-23-22h-95a24 24 0 0 0-23 22l-15 266a24 24 0 0 0 24 25z m152-438a90 90 0 1 0-180 0 90 90 0 0 0 180 0z m-90 672c-268 0-485-217-485-485 0-267 217-484 485-484s484 217 484 485c0 267-217 484-484 484z" horiz-adv-x="1000" />

<glyph glyph-name="icon-pdf" unicode="&#xe80e;" d="M507 160c78 6 91-12 83-17m143 492c9-8 14-20 14-32v-12h-247v247h11c12 0 24-5 33-13l189-189z m-264-437c-39 23-65 56-83 104 9 35 23 90 12 124-9 56-82 51-92 13-10-36-1-85 16-149-23-53-56-125-79-166 0 0 0 0-1 0-52-27-142-86-105-131 11-13 31-19 42-19 34 0 69 35 118 119 49 16 104 37 152 45 42-23 91-38 124-38 56 0 60 62 38 84-27 26-105 19-142 14z m15 331h263v-633a46 46 0 0 0-47-46h-648a46 46 0 0 0-47 46v896a46 46 0 0 0 47 46h386v-262a47 47 0 0 1 46-47z m-245-439c-42-68-67-80-67-78m181 241c19-34 42-60 67-79-46-9-86-29-122-42 22 37 40 82 55 121z m4 91c-10 31-10 90-4 90" horiz-adv-x="746" />

<glyph glyph-name="icon-ring" unicode="&#xe80f;" d="M174 519l102-102a244 244 0 0 1 0-190l-102-102a381 381 0 0 0 0 394z m523 129l-102-102a244 244 0 0 1-190 0l-102 102a381 381 0 0 0 394 0z m129-523l-102 102a244 244 0 0 1 0 190l102 102a381 381 0 0 0 0-394z m-174 197a152 152 0 0 0-152-152 152 152 0 0 0-152 152 152 152 0 0 0 152 152 152 152 0 0 0 152-152z m-349-326l102 102a244 244 0 0 1 190 0l102-102a381 381 0 0 0-394 0z m197-146a472 472 0 1 1 0 944 472 472 0 0 1 0-944z" horiz-adv-x="1000" />

<glyph glyph-name="icon-rx" unicode="&#xe810;" d="M169 683h209a70 70 0 0 0 69-69 70 70 0 0 0-69-70h-209z m515-555l170 169a35 35 0 0 1 0 49l-49 49a35 35 0 0 1-49 0l-170-169-182 182c102 13 182 100 182 206a208 208 0 0 1-208 208h-313a35 35 0 0 1-35-34v-556c0-19 16-35 35-35h70a35 35 0 0 1 34 35v174h41l278-278-170-170a35 35 0 0 1 0-49l50-49a35 35 0 0 1 49 0l169 169 170-169a35 35 0 0 1 49 0l49 49a35 35 0 0 1 0 49z" horiz-adv-x="864" />

<glyph glyph-name="icon-search" unicode="&#xe811;" d="M422 205a245 245 0 0 0-245 245c0 135 109 244 245 244 135 0 244-109 244-244 0-135-109-245-244-245z m567-204l-190 191a46 46 0 0 1-33 13h-31a396 396 0 0 1 84 245c0 219-178 397-397 397-220 0-398-178-398-397 0-220 178-398 398-398 92 0 177 32 244 84v-31c0-12 5-24 14-32l190-191a46 46 0 0 1 65 0l54 54a46 46 0 0 1 0 65z" horiz-adv-x="1000" />

<glyph glyph-name="icon-sliders" unicode="&#xe812;" d="M1143 720v-70c0-19-16-35-35-35h-452v-34c0-20-16-35-35-35h-70a35 35 0 0 0-34 35v34h-453a35 35 0 0 0-34 35v70c0 19 15 35 34 35h453v34c0 19 15 35 34 35h70c19 0 35-16 35-35v-34h452c19 0 35-16 35-35z m0-348v-70c0-19-16-34-35-34h-174v-35c0-19-16-35-35-35h-69a35 35 0 0 0-35 35v35h-731a35 35 0 0 0-34 34v70c0 19 15 35 34 35h731v34c0 20 16 35 35 35h69c20 0 35-15 35-35v-34h174c19 0 35-16 35-35z m0-348v-70c0-19-16-34-35-34h-730v-35c0-19-16-35-35-35h-70a35 35 0 0 0-35 35v35h-174a35 35 0 0 0-34 34v70c0 19 15 35 34 35h174v35c0 19 16 34 35 34h70c19 0 35-15 35-34v-35h730c19 0 35-16 35-35z" horiz-adv-x="1143" />

<glyph glyph-name="icon-star-life" unicode="&#xe813;" d="M920 208l-261 150 261 151c14 8 19 27 11 42l-62 106a31 31 0 0 1-42 11l-260-150v301c0 17-14 30-31 30h-123c-17 0-31-13-31-30v-301l-261 150a31 31 0 0 1-42-11l-61-106a31 31 0 0 1 11-42l261-151-261-150a31 31 0 0 1-11-42l61-107a31 31 0 0 1 42-11l261 151v-301c0-17 14-31 31-31h123c17 0 31 14 31 31v301l260-151c15-8 34-3 42 12l62 106a31 31 0 0 1-11 42z" horiz-adv-x="949" />

<glyph glyph-name="icon-sync" unicode="&#xe814;" d="M50 269a48 48 0 0 1-48-49v-270c0-43 52-64 83-34l71 72c90-85 211-138 345-138 244 0 447 175 490 406 3 15-8 29-23 29h-116a24 24 0 0 1-23-19c-37-148-172-255-328-255-86 0-168 32-231 91l84 84c31 31 9 83-34 83h-270z m598 243c-31-30-9-82 34-82h270a48 48 0 0 1 48 48v270c0 43-52 64-82 34l-72-72c-90 85-211 138-345 138-244 0-447-175-490-406-3-15 8-29 23-29h116a24 24 0 0 1 23 19c37 148 172 255 328 255 86 0 168-32 231-91z" horiz-adv-x="1000" />

<glyph glyph-name="icon-trash" unicode="&#xe815;" d="M842 784h-233l-18 36a47 47 0 0 1-42 26h-221a46 46 0 0 1-42-26l-18-36h-232a31 31 0 0 1-31-31v-62c0-17 14-31 31-31h806a31 31 0 0 1 31 31v62a31 31 0 0 1-31 31z m-620-341a31 31 0 0 0 62 0v-434a31 31 0 0 0-62 0z m186 0a31 31 0 0 0 62 0v-434a31 31 0 0 0-62 0z m186 0a31 31 0 0 0 62 0v-434a31 31 0 0 0-62 0z m-527-496a93 93 0 0 1 93-93h558a93 93 0 0 1 93 93v651h-744z" horiz-adv-x="900" />

<glyph glyph-name="icon-user" unicode="&#xe816;" d="M879 25v-81c0-52-42-94-94-94h-686c-52 0-93 42-93 94v81a262 262 0 0 0 262 262h32a340 340 0 0 1 284 0h33a262 262 0 0 0 262-262z m-686 574a250 250 0 1 0 499 0 250 250 0 0 0-499 0z" horiz-adv-x="875" />

<glyph glyph-name="icon-users" unicode="&#xe817;" d="M468 150c123 0 247-27 351-81 45-22 74-70 74-121v-19a28 28 0 0 0-28-27h-795a27 27 0 0 0-28 27v19c0 50 30 98 74 121 105 54 228 81 352 81z m397-290c39 0 70 31 71 69v19c0 68-37 128-97 158-222 113-521 113-743 0-59-30-96-90-96-158v-19a70 70 0 0 1 70-69z m59 409a747 747 0 0 1-157 0c-74-8-140-39-191-85 19-2 39-5 57-9 40 28 87 46 138 52 25 2 50 3 75 3 25 0 49-1 74-3 155-17 272-149 272-307 0-10-9-19-20-19h-243c-11-25-36-42-64-42h306a61 61 0 0 1 61 60c1 181-132 331-308 350z m-400-409a21 21 0 0 0-21 21v195c0 12 9 21 21 21s21-9 21-21v-196c0-11-10-20-21-20z m-112 0a21 21 0 0 0-21 21v195c0 12 9 21 21 21 12 0 21-9 21-21v-196c0-11-10-20-21-20z m293 633c-2-29-15-42-19-42-5 3-12 3-18 0-6-2-9-8-11-13-16-64-50-117-94-149-58-42-133-42-191 0-44 32-78 85-94 149-2 5-6 11-11 13-3 1-6 2-9 2-3 0-7-1-9-2-4 0-17 14-20 42-1 27 9 44 12 45 7-2 13-1 19 3 5 4 8 10 8 17v11c26 5 44 13 59 20 23 8 40 16 78 16 31 0 52-9 74-19 7-4 15-7 22-10 4-2 9-2 14-1 2 1 5 2 8 5l1 1c18 18 26 43 29 64 11-13 20-32 19-58 0-6 3-12 8-16 4-4 11-6 17-5 21 4 43 10 69 20v-4c0-8 1-16 1-24 0-7 4-13 8-17 6-4 13-5 18-3 5-1 15-18 12-45z m-237 284c117 0 176-44 193-148a655 655 0 0 0-48-17c-11 66-68 93-71 94-6 4-15 3-21-1a20 20 0 0 1-8-20c1-12 1-43-11-64l-6 3c-24 11-50 23-91 23-47 0-71-10-94-20-12-6-24-11-39-15 17 145 108 165 196 165z m240-200v6c-1 11-2 23-3 35v1c-17 135-95 200-237 200-98 0-229-24-240-232v-9c-28-10-45-46-40-89 2-29 14-55 30-69 8-5 16-9 24-11 20-65 57-119 106-155 36-26 78-40 120-40 42 0 83 14 120 40 48 36 84 90 105 155 8 1 16 5 23 11 17 14 29 40 32 69 3 43-13 79-40 88z m138 272c-81 0-153-33-204-88 10-9 18-20 27-33 45 50 106 79 177 79 143 0 251-122 251-284 0-106-42-206-103-270 15-4 29-10 43-16 62 71 102 175 102 286 0 186-126 326-293 326z m-225-566c11-16 22-32 35-46a335 335 0 0 0 42 16c-18 19-34 41-49 65-9-12-18-24-28-35z m426 305v2c-1 23-4 44-9 62-1 7-5 11-11 14-5 3-11 4-16 1-90-31-104-25-139-7-11 5-24 12-42 19-43 16-89 10-133-19 3-12 6-26 7-41v-4c31 23 69 41 110 25 15-6 28-12 38-17 41-20 64-29 148-2 1-10 2-20 3-31v-19c0-7 3-13 8-17 4-4 11-5 16-4 3-3 9-14 7-32-2-17-8-27-12-30-2 1-8 0-13-2-5-3-10-8-11-14-13-51-39-93-75-120-47-34-106-34-152 0-24 17-43 40-57 66-7-4-14-7-21-9a148 148 0 0 0-9-24c17-26 37-50 61-67 30-22 65-34 101-34 36 0 70 12 101 34 39 29 69 74 87 127a61 61 0 0 1 19 9c15 12 25 34 27 59 2 36-11 66-33 75z m-387 41v2l-3-4c1 1 3 1 3 2z m-185 190h-4 4z m113-564c-11-8-23-15-34-20 3-16 8-33 17-50 20-2 39-5 58-9-25 28-34 58-35 83-3-1-5-3-6-4z m-240 0c-2 1-4 3-6 4-2-25-11-56-36-83 20 4 39 7 58 9 9 18 15 34 18 50-12 5-24 12-34 20z m397 63c-2 2-4 3-7 5-1-20-9-45-30-66 19 5 39 9 59 12 4 10 8 21 10 30a229 229 0 0 0-32 19z m202 0c-11-7-22-13-33-19 1-10 5-20 10-30 20-2 39-7 58-12-21 21-28 46-30 65-2-1-4-3-5-4z" horiz-adv-x="1232" />

<glyph glyph-name="down-dir" unicode="&#xe818;" d="M571 457q0-14-10-25l-250-250q-11-11-25-11t-25 11l-250 250q-11 11-11 25t11 25 25 11h500q14 0 25-11t10-25z" horiz-adv-x="571.4" />

<glyph glyph-name="up-dir" unicode="&#xe819;" d="M571 171q0-14-10-25t-25-10h-500q-15 0-25 10t-11 25 11 26l250 250q10 10 25 10t25-10l250-250q10-11 10-26z" horiz-adv-x="571.4" />

<glyph glyph-name="icon-down" unicode="&#xe81a;" d="M1188-150l-1188 1000h2375z" horiz-adv-x="2375" />

<glyph glyph-name="cancel" unicode="&#xe81b;" d="M654 349l346-346-154-154-346 346-346-346-154 154 346 346-346 346 154 154 346-346 346 346 154-154z" horiz-adv-x="1000" />

<glyph glyph-name="icon-card" unicode="&#xe81c;" d="M873 207h-303a27 27 0 0 1-27-27v-89c0-15 12-27 27-27h303a27 27 0 0 1 27 27v89a27 27 0 0 1-27 27z m-428 0h-161a27 27 0 0 1-27-27v-89c0-15 12-27 27-27h161a27 27 0 0 1 27 27v89a27 27 0 0 1-27 27z m-281-250a14 14 0 0 0-14 14v379h1071v-380c0-7-6-13-13-13z m1044 786c7 0 13-6 13-13v-94h-1071v94c0 7 6 13 14 13z m13 107h-1071c-59 0-107-48-107-107v-786c0-59 48-107 107-107h1071c60 0 108 48 108 107v786c0 59-48 107-108 107z" horiz-adv-x="1350" />

<glyph glyph-name="icon-print-2" unicode="&#xe81d;" d="M867 421a34 34 0 1 0 0 68 34 34 0 0 0 0-68z m-93 158h-525v179h525z m0-660h-525v360h525z m127 660h-68v209a30 30 0 0 1-30 30h-584a30 30 0 0 1-30-30v-209h-67a90 90 0 0 1-90-90v-330a90 90 0 0 1 90-90h67v-180c0-16 14-30 30-30h584a30 30 0 0 1 30 30v180h68a90 90 0 0 1 90 90v330a90 90 0 0 1-90 90z m-563-421h347c16 0 29 14 29 30 0 17-13 30-29 30h-347c-15 0-28-13-28-30 0-16 13-30 29-30z m0-120h347c16 0 29 14 29 30l0 1c0 16-13 29-29 29h-347c-15 0-28-13-28-29l0-1c0-16 13-30 29-30z" horiz-adv-x="1000" />

<glyph glyph-name="icon-print" unicode="&#xe81e;" d="M821 287a46 46 0 1 0 0 92 46 46 0 0 0 0-92z m-91 137h-487v304h365v-91c0-17 14-30 31-30h91z m0-426h-487v183h487z m122 705c0 16-7 32-18 43l-86 86a61 61 0 0 1-43 18h-522c-34 0-61-27-61-61v-304a122 122 0 0 1-122-122v-212c0-17 14-31 30-31h92v-182c0-34 27-61 61-61h608c33 0 61 27 61 61v182h91a30 30 0 0 1 30 30v213a122 122 0 0 1-121 122z" horiz-adv-x="1000" />

<glyph glyph-name="left" unicode="&#xe81f;" d="M0 353l390 391q19 18 44 18 25 0 43-18t18-44-18-43l-243-243h642q25 0 43-18t18-43-18-43-43-18h-642l243-243q18-18 18-44t-18-43-43-18-44 18z" horiz-adv-x="938" />

<glyph glyph-name="down-open-big" unicode="&#xe820;" d="M63 570l370-356 372 356q22 26 48 0 26-22 0-48l-396-392q-22-22-48 0l-396 392q-26 26 0 48 24 24 50 0z" horiz-adv-x="866" />

<glyph glyph-name="left-open-big" unicode="&#xe821;" d="M452-20q26-26 0-48-26-26-48 0l-392 394q-24 24 0 50l392 394q22 26 48 0 26-22 0-48l-358-372z" horiz-adv-x="465" />

<glyph glyph-name="right-open-big" unicode="&#xe822;" d="M13-20l358 370-358 372q-26 26 0 48 26 26 48 0l392-394q24-26 0-50l-392-394q-22-26-48 0-26 22 0 48z" horiz-adv-x="465" />

<glyph glyph-name="up-open-big" unicode="&#xe823;" d="M804 130l-372 358-370-358q-26-22-50 0-24 24 0 50l396 390q26 26 48 0l396-390q24-26 0-50-26-22-48 0z" horiz-adv-x="864" />

<glyph glyph-name="plus" unicode="&#xe824;" d="M550 400q30 0 30-50t-30-50l-210 0 0-210q0-30-50-30t-50 30l0 210-210 0q-30 0-30 50t30 50l210 0 0 210q0 30 50 30t50-30l0-210 210 0z" horiz-adv-x="580" />

<glyph glyph-name="minus" unicode="&#xe825;" d="M550 400q30 0 30-50t-30-50l-520 0q-30 0-30 50t30 50l520 0z" horiz-adv-x="580" />

<glyph glyph-name="trash-empty" unicode="&#xe826;" d="M286 439v-321q0-8-5-13t-13-5h-36q-8 0-13 5t-5 13v321q0 8 5 13t13 5h36q8 0 13-5t5-13z m143 0v-321q0-8-5-13t-13-5h-36q-8 0-13 5t-5 13v321q0 8 5 13t13 5h36q8 0 13-5t5-13z m142 0v-321q0-8-5-13t-12-5h-36q-8 0-13 5t-5 13v321q0 8 5 13t13 5h36q7 0 12-5t5-13z m72-404v529h-500v-529q0-12 4-22t8-15 6-5h464q2 0 6 5t8 15 4 22z m-375 601h250l-27 65q-4 5-9 6h-177q-6-1-10-6z m518-18v-36q0-8-5-13t-13-5h-54v-529q0-46-26-80t-63-34h-464q-37 0-63 33t-27 79v531h-53q-8 0-13 5t-5 13v36q0 8 5 13t13 5h172l39 93q9 21 31 35t44 15h178q23 0 44-15t30-35l39-93h173q8 0 13-5t5-13z" horiz-adv-x="785.7" />

<glyph glyph-name="view" unicode="&#xe827;" d="M994 370c-9 12-222 299-494 299s-485-287-494-299c-8-12-8-28 0-39 9-13 222-300 494-300s485 287 494 300c8 11 8 27 0 39z m-494-273c-200 0-374 191-425 253 51 62 224 253 425 253 200 0 374-191 425-253-51-62-224-253-425-253z m0 451c-109 0-198-89-198-198s89-198 198-198 198 89 198 198-89 198-198 198z m0-330c-73 0-132 59-132 132s59 132 132 132 132-59 132-132-59-132-132-132z" horiz-adv-x="1000" />

<glyph glyph-name="thumbs-up" unicode="&#xe828;" d="M143 100q0 15-11 25t-25 11-25-11-11-25 11-25 25-11 25 11 11 25z m643 321q0 29-22 50t-50 22h-196q0 32 27 89t26 89q0 55-17 81t-72 27q-14-15-21-48t-17-70-33-61q-13-13-43-51-2-3-13-16t-18-23-19-24-22-25-22-19-22-15-20-6h-18v-357h18q7 0 18-1t18-4 21-6 20-7 20-6 16-6q118-41 191-41h67q107 0 107 93 0 15-2 31 16 9 26 30t10 41-10 38q29 28 29 67 0 14-5 31t-14 26q18 1 30 26t12 45z m71 1q0-50-27-91 5-18 5-38 0-43-21-81 1-12 1-24 0-56-33-99 0-78-48-123t-126-45h-72q-54 0-106 13t-121 36q-65 23-77 23h-161q-29 0-50 21t-21 50v357q0 30 21 51t50 21h153q20 13 77 86 32 42 60 72 13 14 19 48t17 70 35 60q22 21 50 21 47 0 84-18t57-57 20-104q0-51-27-107h98q58 0 101-42t42-100z" horiz-adv-x="857.1" />

<glyph glyph-name="thumbs-down" unicode="&#xe829;" d="M143 600q0 15-11 25t-25 11-25-11-11-25 11-25 25-11 25 11 11 25z m643-321q0 19-12 45t-30 26q8 10 14 27t5 31q0 38-29 66 10 17 10 38 0 21-10 41t-26 30q2 16 2 31 0 47-27 70t-76 23h-71q-73 0-191-41-3-1-16-5t-20-7-20-7-21-6-18-4-18-1h-18v-357h18q9 0 20-5t22-15 22-20 22-25 19-24 18-22 13-17q30-38 43-51 23-24 33-61t17-70 21-48q54 0 72 27t17 81q0 33-26 89t-27 89h196q28 0 50 22t22 50z m71-1q0-57-42-100t-101-42h-98q27-55 27-107 0-66-20-104-19-39-57-57t-84-18q-28 0-50 21-19 18-30 45t-14 51-10 47-17 36q-27 28-60 71-57 73-77 86h-153q-29 0-50 21t-21 51v357q0 29 21 50t50 21h161q12 0 77 23 72 24 125 36t111 13h63q78 0 126-44t48-121v-3q33-43 33-99 0-12-1-24 21-38 21-80 0-21-5-39 27-41 27-91z" horiz-adv-x="857.1" />

<glyph glyph-name="transport" unicode="&#xe842;" d="M825 203c-47 0-85-38-85-85 0-46 38-85 85-85 47 0 85 39 85 85 0 47-38 85-85 85z m0-110c-14 0-25 12-25 25 0 14 11 25 25 25s25-11 25-25c0-13-11-25-25-25z m-8 464h-147c-11 0-20-9-20-20v-390c0-11 9-20 20-20h21c10 0 19 7 20 17 8 60 56 97 114 97s106-37 114-97c1-10 10-17 20-17h21c11 0 20 9 20 20v195c0 4-2 9-5 13l-163 195c-4 4-9 7-15 7z m-127-160v100c0 11 9 20 20 20h88c6 0 12-3 16-7l83-100c11-14 1-33-16-33h-171c-11 0-20 9-20 20z m-670-270h51c10 0 19 7 20 17 8 60 56 97 114 97s106-37 114-97c1-10 10-17 20-17h251c11 0 20 9 20 20v500c0 11-9 20-20 20h-570c-11 0-20-9-20-20v-500c0-11 9-20 20-20z m185 76c-47 0-85-38-85-85 0-46 38-85 85-85 47 0 85 39 85 85 0 47-38 85-85 85z m0-110c-14 0-25 12-25 25 0 14 11 25 25 25s25-11 25-25c0-13-11-25-25-25z" horiz-adv-x="1000" />
</font>
</defs>
</svg>
