<svg xmlns="http://www.w3.org/2000/svg" width="57.473" height="65.683" viewBox="0 0 57.473 65.683"><path d="M0,59.525a6.159,6.159,0,0,0,6.158,6.158H51.315a6.159,6.159,0,0,0,6.158-6.158V24.631H0ZM41.052,34.381a1.544,1.544,0,0,1,1.539-1.539h5.131a1.544,1.544,0,0,1,1.539,1.539v5.131a1.544,1.544,0,0,1-1.539,1.539H42.591a1.544,1.544,0,0,1-1.539-1.539Zm0,16.421a1.544,1.544,0,0,1,1.539-1.539h5.131A1.544,1.544,0,0,1,49.262,50.8v5.131a1.544,1.544,0,0,1-1.539,1.539H42.591a1.544,1.544,0,0,1-1.539-1.539ZM24.631,34.381a1.544,1.544,0,0,1,1.539-1.539H31.3a1.544,1.544,0,0,1,1.539,1.539v5.131A1.544,1.544,0,0,1,31.3,41.052H26.171a1.544,1.544,0,0,1-1.539-1.539Zm0,16.421a1.544,1.544,0,0,1,1.539-1.539H31.3A1.544,1.544,0,0,1,32.842,50.8v5.131A1.544,1.544,0,0,1,31.3,57.473H26.171a1.544,1.544,0,0,1-1.539-1.539ZM8.21,34.381A1.544,1.544,0,0,1,9.75,32.842h5.131a1.544,1.544,0,0,1,1.539,1.539v5.131a1.544,1.544,0,0,1-1.539,1.539H9.75A1.544,1.544,0,0,1,8.21,39.512Zm0,16.421A1.544,1.544,0,0,1,9.75,49.262h5.131A1.544,1.544,0,0,1,16.421,50.8v5.131a1.544,1.544,0,0,1-1.539,1.539H9.75A1.544,1.544,0,0,1,8.21,55.933ZM51.315,8.21H45.157V2.053A2.059,2.059,0,0,0,43.1,0H39a2.059,2.059,0,0,0-2.053,2.053V8.21H20.526V2.053A2.059,2.059,0,0,0,18.473,0H14.368a2.059,2.059,0,0,0-2.053,2.053V8.21H6.158A6.159,6.159,0,0,0,0,14.368v6.158H57.473V14.368A6.159,6.159,0,0,0,51.315,8.21Z" fill="#777"/></svg>