<svg xmlns="http://www.w3.org/2000/svg" width="32.604" height="32.604" viewBox="0 0 32.604 32.604"><path d="M13.755,0h5.094a1.525,1.525,0,0,1,1.528,1.528v10.7h5.585a1.271,1.271,0,0,1,.9,2.171L17.174,24.09a1.234,1.234,0,0,1-1.738,0L5.737,14.4a1.271,1.271,0,0,1,.9-2.171h5.591V1.528A1.525,1.525,0,0,1,13.755,0ZM32.6,23.943v7.132A1.525,1.525,0,0,1,31.075,32.6H1.528A1.525,1.525,0,0,1,0,31.075V23.943a1.525,1.525,0,0,1,1.528-1.528H10.87l3.12,3.12a3.263,3.263,0,0,0,4.623,0l3.12-3.12h9.342A1.525,1.525,0,0,1,32.6,23.943Zm-7.9,5.6a1.274,1.274,0,1,0-1.274,1.274A1.277,1.277,0,0,0,24.707,29.547Zm4.075,0a1.274,1.274,0,1,0-1.274,1.274A1.277,1.277,0,0,0,28.783,29.547Z" fill="#2374bb"/></svg>