<svg xmlns="http://www.w3.org/2000/svg" width="70" height="92" viewBox="0 0 70 92"><g><g><g><path fill="#fff" d="M35.304 6.253c6.459 0 12.07 7.439 13.66 17.19H21.644c1.59-9.751 7.202-17.19 13.66-17.19zm33.123 60.5c0-.6-.045-1.136-.126-1.624l-2.857-36.995c-.316-2.553-2.532-4.587-5-4.683v-.008h-5.439C53.221 10.25 45.208.573 35.305.573c-9.904 0-17.917 9.677-19.702 22.87h-5.26c-2.539 0-4.855 2.076-5.179 4.691L2.307 65.13a9.898 9.898 0 0 0-.125 1.623v.002L.748 84.096c0 4.37 3.575 7.945 7.944 7.945h53.225c4.37 0 7.944-3.575 7.944-7.945z"/></g><g><g><path fill="#0aa7e0" d="M68.388 65.845C48.69 79.536 22.194 79.32 2.287 65.301a10 10 0 0 0-.105 1.451v.002L.748 84.096c0 4.37 3.575 7.945 7.944 7.945h53.225c4.37 0 7.944-3.575 7.944-7.945l-1.434-17.343c0-.321-.015-.621-.04-.908z"/></g></g></g><g><g><text dominant-baseline="text-before-edge" style="font-kerning:normal" fill="#215fac" font-family="'Montserrat','Montserrat-SemiBold'" font-size="17" letter-spacing=".42" transform="translate(17 46)"><tspan>25%</tspan></text></g></g></g></svg>