<?xml version="1.0" encoding="utf-8"?>
<!-- Generator: Adobe Illustrator 24.1.0, SVG Export Plug-In . SVG Version: 6.00 Build 0)  -->
<svg version="1.1" id="Layer_1" xmlns="http://www.w3.org/2000/svg" xmlns:xlink="http://www.w3.org/1999/xlink" x="0px" y="0px"
	 viewBox="0 0 10.3 7.6" style="enable-background:new 0 0 10.3 7.6;" xml:space="preserve">
<style type="text/css">
	.st0{fill-rule:evenodd;clip-rule:evenodd;fill:#1D1D1B;}
</style>
<g>
	<polygon class="st0" points="8.7,3.1 8.7,5.1 9.4,5.1 9.4,5.6 6.6,5.6 6.6,5.1 7.3,5.1 7.3,3.7 6.6,3.7 6.6,3.1 8.7,3.1 	"/>
	<path class="st0" d="M0.2,0.6c1,0.6,1.8,0.2,2.6-0.2C3.7,0,4.5-0.4,5.3,0.6c0,0,0,0.1,0,0.1l0,6.1C5.3,6.9,5.3,7,5.2,7
		c0,0,0,0-0.1,0c-0.4-0.2-1,0-1.7,0.2C2.5,7.5,1.4,7.8,0.1,7.4C0,7.4,0,7.3,0,7.2l0-6.5C0,0.6,0.1,0.6,0.2,0.6
		C0.2,0.6,0.2,0.6,0.2,0.6L0.2,0.6z M2.9,0.7C2.2,1.1,1.3,1.5,0.3,1v6.1c1.2,0.3,2.2,0,3.1-0.2C4,6.7,4.5,6.5,5,6.6V0.8
		C4.4,0,3.7,0.4,2.9,0.7z"/>
	<path class="st0" d="M10,1C9,1.5,8.2,1.1,7.4,0.7C6.6,0.4,6,0,5.3,0.8v5.9c0.5-0.1,1,0.1,1.7,0.3C7.8,7.2,8.9,7.5,10,7.1V1L10,1z
		 M7.5,0.4c0.8,0.4,1.6,0.8,2.6,0.2c0,0,0.1,0,0.1,0c0.1,0,0.2,0.1,0.2,0.2v6.5c0,0.1,0,0.1-0.1,0.2C8.9,7.8,7.8,7.5,6.9,7.2
		C6.2,7,5.6,6.8,5.2,7c0,0,0,0-0.1,0C5.1,7,5,6.9,5,6.8V0.7c0,0,0-0.1,0-0.1C5.8-0.4,6.6,0,7.5,0.4z"/>
	<path class="st0" d="M7.8,1.5c-0.4,0-0.7,0.3-0.7,0.6c0,0.4,0.3,0.7,0.6,0.7c0.4,0,0.7-0.3,0.7-0.7C8.5,1.8,8.2,1.5,7.8,1.5z"/>
</g>
</svg>
