<?xml version="1.0" encoding="UTF-8"?>
<svg width="82px" height="82px" viewBox="0 0 82 82" version="1.1" xmlns="http://www.w3.org/2000/svg" xmlns:xlink="http://www.w3.org/1999/xlink">
    <title>8CD1FB10-2C08-4476-9140-6F53D39EED8D@2x</title>
    <g id="UI-Template-Library" stroke="none" stroke-width="1" fill="none" fill-rule="evenodd">
        <g id="28.1" transform="translate(-694.000000, -351.000000)">
            <g id="Alert-|-03" transform="translate(120.000000, 88.000000)">
                <g id="Group-2" transform="translate(574.000000, 263.000000)">
                    <g id="Icon-/-Check">
                        <g id="icon_check">
                            <circle id="Oval" stroke="#0AA7E0" stroke-width="4" fill="#F6FBFD" cx="41" cy="41" r="39"></circle>
                            <g id="Group-2" transform="translate(17.000000, 23.000000)" fill="#215FAC">
                                <path d="M2.61246427,22.0351523 L18.3160663,22.0406412 C20.123282,22.0412728 21.5881619,23.5061528 21.5887936,25.3133684 C21.5894247,27.1189516 20.1262219,28.5831776 18.3206388,28.5838087 C18.319877,28.583809 18.3191152,28.583809 18.3183533,28.5838087 L2.61475129,28.5783198 C0.807535635,28.5776882 -0.657344314,27.1128082 -0.657975986,25.3055926 C-0.658607088,23.5000094 0.804595668,22.0357834 2.61017884,22.0351523 C2.61094065,22.0351521 2.61170246,22.0351521 2.61246427,22.0351523 Z" id="Rectangle" transform="translate(10.465409, 25.309481) rotate(-315.000000) translate(-10.465409, -25.309481) "></path>
                                <path d="M11.6670106,14.4074328 L47.654432,14.3948542 C49.4600152,14.3942231 50.9242411,15.8574259 50.9248722,17.663009 C50.9248725,17.6637708 50.9248725,17.6645326 50.9248722,17.6652945 C50.9242406,19.4725101 49.4593606,20.9373901 47.652145,20.9380217 L11.6647236,20.9506003 C9.85914041,20.9512314 8.39491443,19.4880287 8.39428333,17.6824455 C8.39428306,17.6816837 8.39428306,17.6809219 8.39428333,17.6801601 C8.394915,15.8729444 9.85979495,14.4080645 11.6670106,14.4074328 Z" id="Rectangle" transform="translate(29.659578, 17.672727) rotate(-225.000000) translate(-29.659578, -17.672727) "></path>
                            </g>
                        </g>
                    </g>
                </g>
            </g>
        </g>
    </g>
</svg>