<?xml version="1.0" encoding="utf-8"?>
<!-- Generator: Adobe Illustrator 24.1.0, SVG Export Plug-In . SVG Version: 6.00 Build 0)  -->
<svg version="1.1" id="Layer_1" xmlns="http://www.w3.org/2000/svg" xmlns:xlink="http://www.w3.org/1999/xlink" x="0px" y="0px"
	 viewBox="0 0 48 48" style="enable-background:new 0 0 48 48;" xml:space="preserve">
<style type="text/css">
	.st0{fill:#172B54;}
	.st1{filter:url(#Adobe_OpacityMaskFilter);}
	.st2{fill-rule:evenodd;clip-rule:evenodd;fill:#FFFFFF;}
	.st3{mask:url(#mask-2_1_);fill:#0AA7E0;}
</style>
<g id="Presentation-Slides">
	<g id="_x31_6" transform="translate(-1052.000000, -104.000000)">
		<g id="Print-_x7C_-02" transform="translate(145.000000, 88.000000)">
			<g id="Nav-Bar">
				<g id="Component-_x2F_-Navbar-_x2F_-Print-Function" transform="translate(899.000000, 16.000000)">
					<g id="Print-Function">
						<g id="Icon-_x2F_-Print-Function" transform="translate(8.000000, 0.000000)">
							<g id="Icon_x5F_printer_x5F_25_x25_">
								<path id="Printer-BG" class="st0" d="M40.8,13.3H7.2c-4,0-7.2,3.6-7.2,8V32c0,2.9,2.2,5.3,4.8,5.3h4.8v5.3
									c0,2.9,2.2,5.3,4.8,5.3h19.2c2.6,0,4.8-2.4,4.8-5.3v-5.3h4.8c2.6,0,4.8-2.4,4.8-5.3V21.3C48,16.9,44.8,13.3,40.8,13.3z
									 M40,23c-1.1,0-2-0.9-2-2s0.9-2,2-2s2,0.9,2,2S41.1,23,40,23z M36,0H12c-1.3,0-2.4,1.2-2.4,2.7V8c0,1.5,1.1,2.7,2.4,2.7h24
									c1.3,0,2.4-1.2,2.4-2.7V2.7C38.4,1.2,37.3,0,36,0z"/>
								<g id="Fill" transform="translate(0.000000, 36.000000)">
									<g id="Mask">
									</g>
									<defs>
										<filter id="Adobe_OpacityMaskFilter" filterUnits="userSpaceOnUse" x="0" y="-36" width="48" height="48">
											<feColorMatrix  type="matrix" values="1 0 0 0 0  0 1 0 0 0  0 0 1 0 0  0 0 0 1 0"/>
										</filter>
									</defs>
									<mask maskUnits="userSpaceOnUse" x="0" y="-36" width="48" height="48" id="mask-2_1_">
										<g class="st1">
											<rect id="path-1_1_" class="st2" width="48" height="12"/>
										</g>
									</mask>
									<path id="Printer" class="st3" d="M40.8-22.7H7.2c-4,0-7.2,3.6-7.2,8V-4c0,2.9,2.2,5.3,4.8,5.3h4.8v5.3
										c0,2.9,2.2,5.3,4.8,5.3h19.2c2.6,0,4.8-2.4,4.8-5.3V1.3h4.8C45.8,1.3,48-1.1,48-4v-10.7C48-19.1,44.8-22.7,40.8-22.7z
										 M40-13c-1.1,0-2-0.9-2-2s0.9-2,2-2s2,0.9,2,2S41.1-13,40-13z M36-36H12c-1.3,0-2.4,1.2-2.4,2.7v5.3c0,1.5,1.1,2.7,2.4,2.7
										h24c1.3,0,2.4-1.2,2.4-2.7v-5.3C38.4-34.8,37.3-36,36-36z"/>
								</g>
							</g>
						</g>
					</g>
				</g>
			</g>
		</g>
	</g>
</g>
</svg>
