<?xml version="1.0" encoding="utf-8"?>
<!-- Generator: Adobe Illustrator 24.1.0, SVG Export Plug-In . SVG Version: 6.00 Build 0)  -->
<svg version="1.1" id="Layer_1" xmlns="http://www.w3.org/2000/svg" xmlns:xlink="http://www.w3.org/1999/xlink" x="0px" y="0px"
	 viewBox="0 0 7.6 7.6" style="enable-background:new 0 0 7.6 7.6;" xml:space="preserve">
<style type="text/css">
	.st0{fill-rule:evenodd;clip-rule:evenodd;fill:#1D1D1B;}
</style>
<path class="st0" d="M3.8,0c1,0,2,0.4,2.7,1.1c0.7,0.7,1.1,1.6,1.1,2.7c0,1-0.4,2-1.1,2.7C5.8,7.2,4.8,7.6,3.8,7.6
	c-1,0-2-0.4-2.7-1.1C0.4,5.8,0,4.8,0,3.8s0.4-2,1.1-2.7C1.8,0.4,2.7,0,3.8,0L3.8,0z M6.1,1.4c-0.6-0.6-1.4-1-2.4-1
	c-0.9,0-1.7,0.4-2.4,1s-1,1.4-1,2.4s0.4,1.7,1,2.4s1.4,1,2.4,1c0.9,0,1.7-0.4,2.4-1c0.6-0.6,1-1.4,1-2.4S6.7,2,6.1,1.4z"/>
<polygon class="st0" points="1.6,1.2 6.6,6 6.3,6.3 1.3,1.5 "/>
<path class="st0" d="M6.1,5.6l0.2,0.6h-4c0-0.1,0-0.3,0.1-0.4c0.1-0.2,0.2-0.4,0.4-0.7c0.2-0.2,0.5-0.5,0.8-0.8
	c0.5-0.4,0.9-0.8,1.1-1.1C4.9,3,5,2.8,5,2.5c0-0.2-0.1-0.5-0.3-0.6C4.5,1.7,4.3,1.6,4,1.6c-0.3,0-0.5,0.1-0.7,0.3
	C3.1,2.1,3,2.3,3,2.7L2.4,2.6c0-0.5,0.2-0.8,0.5-1.1C3.2,1.3,3.5,1.1,4,1.1c0.5,0,0.9,0.1,1.1,0.4c0.3,0.3,0.4,0.6,0.4,1
	c0,0.2,0,0.4-0.1,0.6C5.4,3.3,5.2,3.5,5.1,3.7C4.9,4,4.5,4.2,4.1,4.6C3.7,4.9,3.5,5.1,3.4,5.3C3.3,5.4,3.2,5.5,3.1,5.6H6.1z"/>
</svg>
