<svg xmlns="http://www.w3.org/2000/svg" width="14.155" height="14.155" viewBox="0 0 14.155 14.155">
  <path id="life-ring-regular" d="M15.077,22.155A7.077,7.077,0,1,0,8,15.077,7.077,7.077,0,0,0,15.077,22.155Zm-2.951-2.189,1.524-1.524a3.662,3.662,0,0,0,2.853,0l1.524,1.524a5.718,5.718,0,0,1-5.9,0Zm5.234-4.888a2.283,2.283,0,1,1-2.283-2.283A2.286,2.286,0,0,1,17.36,15.077Zm2.6,2.951L18.441,16.5a3.662,3.662,0,0,0,0-2.853l1.524-1.524A5.718,5.718,0,0,1,19.965,18.028Zm-1.937-7.839L16.5,11.714a3.662,3.662,0,0,0-2.853,0l-1.524-1.524A5.718,5.718,0,0,1,18.028,10.189Zm-7.839,1.937,1.524,1.524a3.662,3.662,0,0,0,0,2.853l-1.524,1.524A5.718,5.718,0,0,1,10.189,12.127Z" transform="translate(-8 -8)" fill="#74add8"/>
</svg>
