<svg xmlns="http://www.w3.org/2000/svg" width="52.615" height="70.154" viewBox="0 0 52.615 70.154"><path d="M24.924,35.091c-.685-2.192-.671-6.426-.274-6.426C25.8,28.664,25.691,33.72,24.924,35.091Zm-.233,6.467A63.225,63.225,0,0,1,20.8,50.149a50.453,50.453,0,0,1,8.618-3,17.749,17.749,0,0,1-4.727-5.59ZM11.8,58.658c0,.11,1.809-.74,4.782-5.508C15.661,54.013,12.592,56.507,11.8,58.658ZM33.981,21.923H52.615V66.865a3.281,3.281,0,0,1-3.288,3.288H3.288A3.281,3.281,0,0,1,0,66.865V3.288A3.281,3.281,0,0,1,3.288,0h27.4V18.635A3.3,3.3,0,0,0,33.981,21.923Zm-1.1,23.54a13.752,13.752,0,0,1-5.851-7.372c.617-2.535,1.589-6.385.85-8.8-.644-4.028-5.81-3.631-6.55-.932-.685,2.507-.055,6.043,1.11,10.55a128.664,128.664,0,0,1-5.59,11.756c-.014,0-.014.014-.027.014-3.713,1.9-10.085,6.1-7.468,9.317a4.258,4.258,0,0,0,2.946,1.37c2.453,0,4.892-2.466,8.372-8.468A78.1,78.1,0,0,1,31.5,49.724,20.765,20.765,0,0,0,40.27,52.4c4,0,4.275-4.385,2.7-5.947C41.065,44.586,35.529,45.12,32.885,45.463ZM51.656,14.387,38.228.959A3.286,3.286,0,0,0,35.9,0h-.822V17.538H52.615V16.7A3.278,3.278,0,0,0,51.656,14.387ZM41.5,49.368c.562-.37-.343-1.631-5.864-1.233C40.722,50.3,41.5,49.368,41.5,49.368Z" fill="#215fac"/></svg>