<?xml version="1.0" encoding="utf-8"?>
<svg xmlns="http://www.w3.org/2000/svg" xmlns:xlink="http://www.w3.org/1999/xlink" style="margin: auto; background: none; display: block; shape-rendering: auto;" width="201px" height="201px" viewBox="0 0 100 100" preserveAspectRatio="xMidYMid">
<g transform="rotate(0 50 50)">
  <rect x="47.5" y="19" rx="2.5" ry="3.22" width="5" height="14" fill="#2374bb">
    <animate attributeName="opacity" values="1;0" keyTimes="0;1" dur="0.6134969325153374s" begin="-0.5725971370143149s" repeatCount="indefinite"></animate>
  </rect>
</g><g transform="rotate(24 50 50)">
  <rect x="47.5" y="19" rx="2.5" ry="3.22" width="5" height="14" fill="#2374bb">
    <animate attributeName="opacity" values="1;0" keyTimes="0;1" dur="0.6134969325153374s" begin="-0.5316973415132924s" repeatCount="indefinite"></animate>
  </rect>
</g><g transform="rotate(48 50 50)">
  <rect x="47.5" y="19" rx="2.5" ry="3.22" width="5" height="14" fill="#2374bb">
    <animate attributeName="opacity" values="1;0" keyTimes="0;1" dur="0.6134969325153374s" begin="-0.4907975460122699s" repeatCount="indefinite"></animate>
  </rect>
</g><g transform="rotate(72 50 50)">
  <rect x="47.5" y="19" rx="2.5" ry="3.22" width="5" height="14" fill="#2374bb">
    <animate attributeName="opacity" values="1;0" keyTimes="0;1" dur="0.6134969325153374s" begin="-0.4498977505112474s" repeatCount="indefinite"></animate>
  </rect>
</g><g transform="rotate(96 50 50)">
  <rect x="47.5" y="19" rx="2.5" ry="3.22" width="5" height="14" fill="#2374bb">
    <animate attributeName="opacity" values="1;0" keyTimes="0;1" dur="0.6134969325153374s" begin="-0.4089979550102249s" repeatCount="indefinite"></animate>
  </rect>
</g><g transform="rotate(120 50 50)">
  <rect x="47.5" y="19" rx="2.5" ry="3.22" width="5" height="14" fill="#2374bb">
    <animate attributeName="opacity" values="1;0" keyTimes="0;1" dur="0.6134969325153374s" begin="-0.36809815950920244s" repeatCount="indefinite"></animate>
  </rect>
</g><g transform="rotate(144 50 50)">
  <rect x="47.5" y="19" rx="2.5" ry="3.22" width="5" height="14" fill="#2374bb">
    <animate attributeName="opacity" values="1;0" keyTimes="0;1" dur="0.6134969325153374s" begin="-0.3271983640081799s" repeatCount="indefinite"></animate>
  </rect>
</g><g transform="rotate(168 50 50)">
  <rect x="47.5" y="19" rx="2.5" ry="3.22" width="5" height="14" fill="#2374bb">
    <animate attributeName="opacity" values="1;0" keyTimes="0;1" dur="0.6134969325153374s" begin="-0.28629856850715746s" repeatCount="indefinite"></animate>
  </rect>
</g><g transform="rotate(192 50 50)">
  <rect x="47.5" y="19" rx="2.5" ry="3.22" width="5" height="14" fill="#2374bb">
    <animate attributeName="opacity" values="1;0" keyTimes="0;1" dur="0.6134969325153374s" begin="-0.24539877300613494s" repeatCount="indefinite"></animate>
  </rect>
</g><g transform="rotate(216 50 50)">
  <rect x="47.5" y="19" rx="2.5" ry="3.22" width="5" height="14" fill="#2374bb">
    <animate attributeName="opacity" values="1;0" keyTimes="0;1" dur="0.6134969325153374s" begin="-0.20449897750511245s" repeatCount="indefinite"></animate>
  </rect>
</g><g transform="rotate(240 50 50)">
  <rect x="47.5" y="19" rx="2.5" ry="3.22" width="5" height="14" fill="#2374bb">
    <animate attributeName="opacity" values="1;0" keyTimes="0;1" dur="0.6134969325153374s" begin="-0.16359918200408996s" repeatCount="indefinite"></animate>
  </rect>
</g><g transform="rotate(264 50 50)">
  <rect x="47.5" y="19" rx="2.5" ry="3.22" width="5" height="14" fill="#2374bb">
    <animate attributeName="opacity" values="1;0" keyTimes="0;1" dur="0.6134969325153374s" begin="-0.12269938650306747s" repeatCount="indefinite"></animate>
  </rect>
</g><g transform="rotate(288 50 50)">
  <rect x="47.5" y="19" rx="2.5" ry="3.22" width="5" height="14" fill="#2374bb">
    <animate attributeName="opacity" values="1;0" keyTimes="0;1" dur="0.6134969325153374s" begin="-0.08179959100204498s" repeatCount="indefinite"></animate>
  </rect>
</g><g transform="rotate(312 50 50)">
  <rect x="47.5" y="19" rx="2.5" ry="3.22" width="5" height="14" fill="#2374bb">
    <animate attributeName="opacity" values="1;0" keyTimes="0;1" dur="0.6134969325153374s" begin="-0.04089979550102249s" repeatCount="indefinite"></animate>
  </rect>
</g><g transform="rotate(336 50 50)">
  <rect x="47.5" y="19" rx="2.5" ry="3.22" width="5" height="14" fill="#2374bb">
    <animate attributeName="opacity" values="1;0" keyTimes="0;1" dur="0.6134969325153374s" begin="0s" repeatCount="indefinite"></animate>
  </rect>
</g>
<!-- [ldio] generated by https://loading.io/ --></svg>