<?xml version="1.0" encoding="UTF-8"?>
<svg width="386px" height="560px" viewBox="0 0 386 560" version="1.1" xmlns="http://www.w3.org/2000/svg" xmlns:xlink="http://www.w3.org/1999/xlink">
    <title>0939C8EF-6BD7-4D78-A8AD-C2E916F5E20F</title>
    <defs>
        <rect id="path-1" x="0" y="0" width="386" height="560" rx="16"></rect>
        <rect id="path-3" x="0" y="0" width="467" height="560" rx="8"></rect>
    </defs>
    <g id="UI-Template-Library" stroke="none" stroke-width="1" fill="none" fill-rule="evenodd">
        <g id="41" transform="translate(-184.000000, -218.000000)">
            <g id="Basket-|-01" transform="translate(120.000000, 74.000000)">
                <g id="support_graphic" transform="translate(64.000000, 144.000000)">
                    <mask id="mask-2" fill="white">
                        <use xlink:href="#path-1"></use>
                    </mask>
                    <g id="Mask"></g>
                    <g id="Shape" mask="url(#mask-2)">
                        <g transform="translate(-81.000000, 0.000000)">
                            <mask id="mask-4" fill="white">
                                <use xlink:href="#path-3"></use>
                            </mask>
                            <g id="Mask" stroke="none" fill="none"></g>
                            <path d="M319,0 C187.68,0 81,106.68 81,238 C81,369.32 187.68,476 319,476 L333,476 L333,560 C469.08,494.48 557,364 557,238 C557,106.68 450.32,0 319,0 Z M257,406 L201,406 L201,350 L257,350 L257,406 Z M257,308 L201,308 C201,217 285,224 285,168 C285,137.2 259.8,112 229,112 C198.2,112 173,137.2 173,168 L117,168 C117,106.12 167.12,56 229,56 C290.88,56 341,106.12 341,168 C341,238 257,245 257,308 Z" id="Shape" stroke="none" fill-opacity="0.05" fill="#000000" fill-rule="nonzero" mask="url(#mask-4)"></path>
                        </g>
                    </g>
                </g>
            </g>
        </g>
    </g>
</svg>